<?xml version="1.0" encoding="utf-8"?>
<!-- Generator: Adobe Illustrator 23.1.1, SVG Export Plug-In . SVG Version: 6.00 Build 0)  -->
<svg version="1.1"
	 id="svg2" inkscape:version="0.43" sodipodi:docbase="/home/sdeibel" sodipodi:docname="logo-python-generic.svg" sodipodi:version="0.32" xmlns:cc="http://web.resource.org/cc/" xmlns:dc="http://purl.org/dc/elements/1.1/" xmlns:inkscape="http://www.inkscape.org/namespaces/inkscape" xmlns:rdf="http://www.w3.org/1999/02/22-rdf-syntax-ns#" xmlns:sodipodi="http://inkscape.sourceforge.net/DTD/sodipodi-0.dtd" xmlns:svg="http://www.w3.org/2000/svg"
	 xmlns="http://www.w3.org/2000/svg" xmlns:xlink="http://www.w3.org/1999/xlink" x="0px" y="0px" viewBox="0 0 390.1 169.9"
	 style="enable-background:new 0 0 390.1 169.9;" xml:space="preserve">
<style type="text/css">
	.st0{fill:#007699;}
	.st1{fill:#F7901E;}
</style>
<g>
	<path class="st0" d="M300.7,111v-10h-3.6c-8.2,0-12.3,2.5-12.3,7.6c0,4.4,2.2,6.6,6.5,6.6C294.3,115.2,297.5,113.8,300.7,111
		 M309.4,120.7h-6.8l-0.7-4.6c-4.2,3.6-8.5,5.4-13,5.4c-8.5,0-12.7-3.9-12.7-11.7c0-4.5,1.7-7.9,5.2-10.4c3.7-2.6,9.2-4,16.3-4h3
		v-3.8c0-5-2.9-7.5-8.7-7.5c-3.8,0-7.9,0.8-12.3,2.5l-1.3-5.3c5.2-2.3,10.6-3.5,16-3.5c10,0,15,4.3,15,12.8V120.7z M273.7,78.6
		c-2.8,15.6-7.1,29.6-13,42.1h-10.7L237,78.6h9.4l8,25.9l1.8,7.8c4.2-11.5,7-22.7,8.4-33.6H273.7z M222.8,111v-10h-3.6
		c-8.2,0-12.3,2.5-12.3,7.6c0,4.4,2.2,6.6,6.5,6.6C216.4,115.2,219.5,113.8,222.8,111 M231.4,120.7h-6.8l-0.7-4.6
		c-4.2,3.6-8.5,5.4-13,5.4c-8.5,0-12.7-3.9-12.7-11.7c0-4.5,1.7-7.9,5.2-10.4c3.7-2.6,9.2-4,16.3-4h3v-3.8c0-5-2.9-7.5-8.7-7.5
		c-3.8,0-7.9,0.8-12.3,2.5l-1.3-5.3c5.2-2.3,10.6-3.5,16-3.5c10,0,15,4.3,15,12.8V120.7z M190.4,114.8c0,9.2-3.1,16.1-9.3,20.7
		l-4.5-3.8c2-2.3,3.3-5.1,4-8.3c0.5-2.2,0.7-5.2,0.7-9.1V63.6h9.1V114.8z M315.4,85.7h1.5v-5.8h2v-1.2h-5.6v1.2h2.1V85.7z
		 M326.9,85.7h1.4v-7h-2.1l-1.7,4.8l-1.9-4.8h-2.1v7h1.3v-5.3h0.1l2,5.3h1l2-5.3V85.7z"/>
	<path class="st0" d="M128.7,94.6c-3.3,0.9-10.8,2.5-21.5,2.5c-10.5,0-19-1.8-19.1-3.9c0-1.4,1.7-2,1.7-2L89.5,91
		c-5,0.9-9.7,2.3-9.7,4.3c0,3.7,14.3,6.5,27.3,6.5c11.1,0,21.7-1.9,26.5-4.3L128.7,94.6z M93.3,106.1c-2.3,0.5-7.4,1.6-7.4,4.1
		c0,3.4,10.9,6,21.3,6c14.4,0,20.3-3.7,20.6-3.9l-6-3.5c-2.6,0.6-6.8,1.6-14.6,1.6c-8.6,0-14.3-1.5-14.3-3.1c0-0.3,0.2-0.8,0.6-1.1
		L93.3,106.1z M152.2,83.1c-0.4,7.7-7.6,12.6-14.7,16.6l0.6,0.4c7.6-2.1,21.2-8.4,20.1-18c-0.6-4.8-4.9-8.2-10.6-8.2
		c-1.8,0-3.4,0.3-4.6,0.7l0,0l-0.3,0.7C147.8,74.3,152.5,78.1,152.2,83.1 M107,128.6c20.1-0.2,42.5-4.1,42.4-10.7
		c0-1.2-0.8-2-1.5-2.5l-0.3,0.2c-1.9,5.1-17.5,8.9-40.7,9.1c-14.9,0.1-35.6-3.5-35.7-7.6c0-4.1,9.8-6.4,9.8-6.4l-0.7-0.4
		c-6.6,0.9-18.7,4.1-18.7,8.6C61.8,125.4,89.7,128.7,107,128.6 M104.9,133.3c-8,0.1-17.7-0.6-25.9-2l-0.8,0.4
		c8.2,2.4,19.5,3.8,32,3.7c24.5-0.2,44.4-6.3,44.8-13.6l-0.3-0.2C153.1,123.7,142.5,133,104.9,133.3 M74.2,81.4
		c0-3.7,14-5.8,20.6-6.3l0.6,0.4c-2.5,0.5-12.6,2.2-12.6,4.5c0,2.5,15.4,4.2,24.4,4.2c15.2,0,25.6-2.3,28.3-3.1l3.9,2.3
		c-2.7,1.3-14.1,4.7-32.2,4.7C87.1,88.1,74.2,84.2,74.2,81.4"/>
	<path class="st1" d="M135.1,29.7l-0.3-0.2c-6.1,2.1-25,9.5-25,23.4c0,7.9,7.7,12.2,7.7,19.6c0,2.6-1.5,5.1-2.7,6.6l0.6,0.3
		c3.2-2.1,8.8-6.6,8.8-12.4c0-4.9-6.8-10.8-6.8-17.1C117.4,39.9,130.5,32.1,135.1,29.7 M125.8,11.5c0,20.5-28.2,28.4-28.2,43
		c0,10.3,6.8,16.7,10.6,20.7l-0.3,0.2c-4.7-3-17.2-10.4-17.2-22.8c0-17.3,32.3-25.6,32.3-45.2c0-2.4-0.4-4.3-0.6-5.3l0.3-0.2
		C123.8,3.3,125.8,6.5,125.8,11.5"/>
</g>
</svg>
